<svg xmlns="http://www.w3.org/2000/svg" viewBox="0 0 251.1 264.81"><defs><style>.cls-1{fill:#fff;}.cls-2{isolation:isolate;}.cls-3{fill:#ffc71f;}.cls-4{fill:#f2507b;}</style></defs><g id="Layer_2" data-name="Layer 2"><g id="Layer_1-2" data-name="Layer 1"><path class="cls-1" d="M228.68,176A27.75,27.75,0,0,0,232,173.8l.38-.26,11.45-8-7.21-12-5.2-8.64,0-.06,0-.06c-3.68-6-4.84-7.87-5.18-8.44q-.24-.44-.51-.84c.85-.64,1.55-1.27,2.11-1.77l.1-.09.11-.1c2.63-2.45,5.32-4.73,8-6.8l.11-.07.1-.09,2.8-2.24,12.15-9.72-10.17-11.79-1.52-1.76-.07-.09-.08-.09a61.76,61.76,0,0,0-10.89-9.46,69.67,69.67,0,0,0-9.73-5.68l.33-.23-7.22-12-5.2-8.64,0-.06,0-.06c-3.68-6-4.84-7.87-5.18-8.44q-.24-.43-.51-.84c.85-.64,1.55-1.27,2.11-1.77l.1-.09.11-.1c2.63-2.45,5.32-4.73,8-6.8l.11-.07.1-.09,2.8-2.24,12.16-9.72L216.09,22.81l-1.52-1.76L214.5,21l-.08-.09a61.76,61.76,0,0,0-10.89-9.46,67.79,67.79,0,0,0-12.78-7A53.36,53.36,0,0,0,170,0h0a48.93,48.93,0,0,0-6.74.47,50.07,50.07,0,0,0-19.41,6.91L144,4.65H108.36l.13-.86-18,.55L30,6.18,12,6.72l3.7,17.55,4.93,23.39.38,2,2.34,12.16h7.84L29.45,85.83l-11.53.35L0,86.72l3.7,17.55,4.93,23.39.38,2,2.34,12.16h7.84L17.38,166.2l-17.3.52,3.7,17.55,4.93,23.39.38,2,2.34,12.16h7.84l-1.85,25-1.19,16,16.07.09,29.6.16,15.94.09L77,247.22l-.1-1.87a43.13,43.13,0,0,0,16.63,14.24,52.85,52.85,0,0,0,22.12,5.12,16,16,0,0,0,1.82.1h.4l.4,0c13.28-.71,24.54-4.48,33.56-11.2v9.47l15.16-.17,50.34-.55,16.5,2.07v-2.08h.08V246.64c0-.65.08-1.38.13-2.18l.62-8.32v-.09c.21-3,.42-5.78.62-8.17l0-.27v-.28c0-.7.07-1.32.1-1.86l.16-.64v-1.24l.13-1.11,2.33-19.4-10.75,1.53-1.05-12.17c-.25-2.93-.48-5.87-.68-8.72,0-.51-.08-1-.15-1.51-.08-1.23-.17-2.49-.27-3.75a32.5,32.5,0,0,0,3-2l.19-.15.19-.15h0Z"/><g class="cls-2"><path class="cls-3" d="M92,19.33,88.49,42.69l-.64,4.48a1.54,1.54,0,0,1-.32-.08,5.31,5.31,0,0,1-.72-.08l-2.64-.4h-.08L84,46.53h-.4l-.16-.08h-.32l-.08-.08h-.48l-.08-.08h-.4L82,46.21h-.4l-.08-.08h-.48L81,46.05h-.4L80.49,46h-.4L80,45.89h-.48v-.08h-.48L79,45.73h-.48l-.08-.08H78v-.08h-.48l-.08-.08h-.4L77,45.41h-.48l-.08-.08h-.16c-1-.16-2.19-.35-3.68-.56L75,88.05l-29.6-.16,3.2-43.12a.79.79,0,0,1-.32.08l-7.84,1.36-2.64.4c-.27,0-.51.11-.72.16h-.24l-.4-2.08-5-23.52Z"/></g><g class="cls-2"><path class="cls-4" d="M125.37,88.13l-22.16.08L99.53,19.65h29.68Z"/></g><g class="cls-2"><path class="cls-3" d="M186,18.21a53.67,53.67,0,0,1,10,5.52,46.36,46.36,0,0,1,8.24,7.12l1.52,1.76L203,34.85q-4.56,3.52-9,7.68a6.87,6.87,0,0,1-1.76,1.36,15.64,15.64,0,0,1-1.44-.8,15.57,15.57,0,0,0-7.28-2.28,23.86,23.86,0,0,0-8.88,1,14.31,14.31,0,0,0-3.6,1.92,15.71,15.71,0,0,0-3.32,2.84,17.11,17.11,0,0,0-2.08,3.36,14.94,14.94,0,0,0-1.32,3.64,10.42,10.42,0,0,0,.64,6.32A11,11,0,0,0,167,62.65a11.47,11.47,0,0,0,2.92,2.2,16.34,16.34,0,0,0,7.12,1.68,23.15,23.15,0,0,0,9-1.92c2-.85,3.09-1.15,3.2-.88q.08.17,5.44,8.88l5.2,8.64-.8.56a11,11,0,0,1-1.84,1.28,17,17,0,0,0-2.08,1.44,28.88,28.88,0,0,1-4.56,2.6,41.43,41.43,0,0,1-33.76,1.48q-8.25-3.27-12.56-8.08A46.51,46.51,0,0,1,138.89,73a39.56,39.56,0,0,1-4.8-15,40.67,40.67,0,0,1,1.28-16.08,36.18,36.18,0,0,1,10.08-16A35.9,35.9,0,0,1,186,18.21Z"/></g><g class="cls-2"><path class="cls-4" d="M80,99.33l-3.52,23.36-.64,4.48a1.54,1.54,0,0,1-.32-.08,5.31,5.31,0,0,1-.72-.08l-2.64-.4h-.08l-.08-.08h-.4l-.16-.08h-.32l-.08-.08h-.48l-.08-.08h-.4l-.08-.08h-.4l-.08-.08H69l-.08-.08h-.4l-.08-.08h-.4l-.08-.08h-.48v-.08H67l-.08-.08h-.48l-.08-.08H66v-.08h-.48l-.08-.08H65l-.08-.08h-.48l-.08-.08h-.16c-1-.16-2.19-.35-3.68-.56l2.4,43.28-29.6-.16,3.2-43.12a.79.79,0,0,1-.32.08l-7.84,1.36-2.64.4c-.27,0-.51.11-.72.16h-.24l-.4-2.08-5-23.52Z"/></g><g class="cls-2"><path class="cls-3" d="M141.09,99.81V100l.08.08v.24l.08.16c.11.53.21,1.23.32,2.08l1.44,7.36,4.32,22.4,4.24,22.4c.59,2.93,1.07,5.42,1.44,7.44v.24l.08.08v.32l.08.08v.24l.08.16v.32l.08.16.72,3.84-24,.72-.16-.8s-.08,0-.08-.08a.72.72,0,0,0-.08-.24,9.21,9.21,0,0,0-.32-1.12v-.16l-.08-.08v-.24l-.08-.08v-.16l-.08-.08V165l-.08-.08v-.24H129v-.24l-.08-.08v-.16l-.08-.08v-.32h-.08v-.16l-.08-.08v-.24l-.08-.08V163h-.08v-.24l-.08-.08v-.24l-.08-.08v-.16l-.08-.16-.72-2.72-14.4.4c-.16.7-.32,1.36-.48,2l-.8,3-.8,3.2-25.36-.8.4-2.24.08-.4.32-1.44.24-.88,1.6-7.36,5-22.08,4.88-22.08,1.68-7.28v-.32L100,103v-.24l.08-.08v-.24l.08-.08v-.24l.08-.08v-.32l.08-.08v-.32a3.28,3.28,0,0,0,.16-.72H101a9.63,9.63,0,0,1,1.28-.08c1.28,0,2.8,0,4.56-.08q6.32-.17,13.92-.32l13.84-.24c1.76,0,3.28-.11,4.56-.16h1.92Zm-21,33.52v.08l-.08.16-1,4-2.8,10.56,8-.56-2.88-10.08v-.16l-.08-.08v-.16l-.08-.16v-.24l-.08-.08v-.16l-.08-.08v-.16l-.08-.16v-.16l-.08-.08v-.16l-.08-.08v-.24l-.08-.08V135h-.08v-.24l-.08-.08v-.24l-.08-.08v-.16l-.08-.08v-.24l-.08-.08v-.16l-.08-.08v-.24l-.08-.08Z"/></g><g class="cls-2"><path class="cls-4" d="M210.85,98.21a53.67,53.67,0,0,1,10,5.52,46.36,46.36,0,0,1,8.24,7.12l1.52,1.76-2.8,2.24q-4.56,3.53-9,7.68a7.07,7.07,0,0,1-1.76,1.36,15.64,15.64,0,0,1-1.44-.8,15.57,15.57,0,0,0-7.28-2.28,23.86,23.86,0,0,0-8.88,1,14.31,14.31,0,0,0-3.6,1.92,15.45,15.45,0,0,0-3.32,2.84,17.11,17.11,0,0,0-2.08,3.36,14.94,14.94,0,0,0-1.32,3.64,10.42,10.42,0,0,0,.64,6.32,11,11,0,0,0,2.12,2.76,11.3,11.3,0,0,0,2.92,2.2,16.34,16.34,0,0,0,7.12,1.68,23.15,23.15,0,0,0,9-1.92c2-.85,3.09-1.15,3.2-.88q.08.17,5.44,8.88l5.2,8.64-.8.56a11.43,11.43,0,0,1-1.84,1.28,17,17,0,0,0-2.08,1.44,28.88,28.88,0,0,1-4.56,2.6,41.43,41.43,0,0,1-33.76,1.48q-8.25-3.27-12.56-8.08a46.51,46.51,0,0,1-5.44-7.52,39.56,39.56,0,0,1-4.8-15,40.67,40.67,0,0,1,1.28-16.08,36.18,36.18,0,0,1,10.08-16,35.9,35.9,0,0,1,40.56-7.68Z"/></g><g class="cls-2"><path class="cls-3" d="M80.05,179.33l-3.52,23.36-.64,4.48a1.54,1.54,0,0,1-.32-.08,5.31,5.31,0,0,1-.72-.08l-2.64-.4h-.08l-.08-.08h-.4l-.16-.08h-.32l-.08-.08h-.48l-.08-.08h-.4l-.08-.08h-.4l-.08-.08h-.48l-.08-.08h-.4l-.08-.08h-.4l-.08-.08h-.48v-.08h-.48l-.08-.08h-.48l-.08-.08h-.4v-.08h-.48l-.08-.08h-.4l-.08-.08h-.48l-.08-.08h-.16c-1-.16-2.19-.35-3.68-.56L63,248.05l-29.6-.16,3.2-43.12a.76.76,0,0,1-.32.08l-7.84,1.36-2.64.4c-.27,0-.51.11-.72.16h-.24l-.4-2.08-5-23.52Z"/></g><g class="cls-2"><path class="cls-4" d="M101.13,246.13a28.16,28.16,0,0,1-11.4-10,31.65,31.65,0,0,1-4.72-13,42.08,42.08,0,0,1,.64-15,47.63,47.63,0,0,1,5.6-14.2,39.16,39.16,0,0,1,9.52-11,31.94,31.94,0,0,1,13.92-6.48,34.68,34.68,0,0,1,15.92.88,35.94,35.94,0,0,1,20.8,15.44,37.84,37.84,0,0,1,6.08,23.84A32.87,32.87,0,0,1,147,238.93q-10.56,9.93-28.56,10.88a2,2,0,0,1-.56-.08A38.2,38.2,0,0,1,101.13,246.13Zm15.36-34.48a7.34,7.34,0,0,0,0,10.32,7.24,7.24,0,0,0,10.32,0,7.34,7.34,0,0,0,0-10.32,7.24,7.24,0,0,0-10.32,0Z"/></g><g class="cls-2"><path class="cls-3" d="M212.13,215.09h-.08a4.34,4.34,0,0,1,.08.8.9.9,0,0,1-.48.08c-.32.05-.75.11-1.28.16l-4.64.4-12.4,1.28,1,6.8,27.44-3.92-.24,2V223a3.08,3.08,0,0,0-.08.8c-.06.75-.11,1.68-.16,2.8q-.33,3.76-.64,8.4l-.64,8.48c-.06,1-.11,1.9-.16,2.64v1.2h-.08v.08l-.64-.08-51.36.56v-.72c-.06-.58-.11-1.28-.16-2.08l-.24-7.44-1-22.56-1-22.56-.32-7.44v-1.68l-.08-.08v-1.12l3.84-.16c.42,0,1.54-.11,3.36-.32l15.76-1.52,15.76-1.52c2-.16,3.73-.32,5.12-.48.58-.05,1.09-.11,1.52-.16h.48a1.34,1.34,0,0,0,.08.48h.08c.16,1.87.29,3.71.4,5.52a1.61,1.61,0,0,1,.08.48q.31,4.56.72,9.2h-.08c0,.85.08,1.71.08,2.56l-22.08,1.12.88,5.6,13.12-1.12h.4l.08-.08h.8l.16-.08h.8l.08-.08h.88l.08-.08h.8l.08-.08h.32c.53-.05,1-.08,1.28-.08l.48-.08v.08h.16Z"/></g></g></g></svg>